<svg id="Hoya_Logo" xmlns="http://www.w3.org/2000/svg" xmlns:xlink="http://www.w3.org/1999/xlink" width="88" height="36" viewBox="0 0 88 36">
  <defs>
    <clipPath id="clip-path">
      <rect id="Rectangle_49" data-name="Rectangle 49" width="82.176" height="32"/>
    </clipPath>
  </defs>
  <rect id="Rectangle_62" data-name="Rectangle 62" width="88" height="36" fill="none"/>
  <g id="Hoya_logo-2" data-name="Hoya logo" transform="translate(3 2)">
    <path id="Path_1" data-name="Path 1" d="M150.151,1.3,145.1,8.029,140.089,1.3H136.6l6.978,8.692v6.386H146.6V9.992L153.516,1.3Z" transform="translate(-92.578 -0.895)" fill="#0057b8"/>
    <path id="Path_2" data-name="Path 2" d="M188.723,3.922l2.648,5.639h-5.234ZM187.29.9,180,15.978h3.3l1.9-4.3h7.1l1.994,4.3h3.4L190.031.9Z" transform="translate(-121.749 -0.62)" fill="#0057b8"/>
    <g id="Group_7" data-name="Group 7">
      <g id="Group_2" data-name="Group 2" clip-path="url(#clip-path)">
        <path id="Path_3" data-name="Path 3" d="M52.712,8.32c0-5.376-3.744-8.32-8.864-8.32-6.816,0-8.9,4.032-9.376,6.656-1.088-.16-2.24-.288-3.424-.384V.288h-3.04V6.08c-.416,0-.864-.032-1.28-.032a54.249,54.249,0,0,0-7.008.512V.288H16.712V7.04C13.544,7.584,11.4,8.16,11.4,8.16h5.312v7.616h2.976V8.16h8.32v7.616h3.008V8.16h3.3c.064,4.256,3.3,7.872,8.96,7.872,9.536,0,9.44-7.712,9.44-7.712m-9.056,5.472c-2.24,0-6.08-.7-6.208-5.632h5.024s-2.016-.512-4.992-1.024c.416-4.384,4.32-5.024,6.176-5.024,3.328,0,5.824,1.984,5.824,5.6.032,4.32-2.432,6.08-5.824,6.08" transform="translate(-7.752 0)" fill="#0057b8"/>
      </g>
      <g id="Group_3" data-name="Group 3" clip-path="url(#clip-path)">
        <path id="Path_4" data-name="Path 4" d="M20.88,87.056c.032.576.384.768.96.768.384,0,.8-.128.8-.512,0-.448-.736-.544-1.44-.736-.736-.192-1.472-.544-1.472-1.44,0-1.12,1.12-1.536,2.048-1.536,1.024,0,2.016.48,2.016,1.632H22.48c.032-.448-.416-.608-.8-.608-.288,0-.64.1-.64.448,0,.384.736.448,1.472.672.736.192,1.472.544,1.472,1.472,0,1.28-1.088,1.7-2.208,1.7-1.152,0-2.176-.512-2.176-1.792h1.28Z" transform="translate(-13.328 -56.848)" fill="#717375"/>
      </g>
      <g id="Group_4" data-name="Group 4" clip-path="url(#clip-path)">
        <path id="Path_5" data-name="Path 5" d="M40.816,86.776a1.927,1.927,0,0,1-2.208,2.208A1.927,1.927,0,0,1,36.4,86.776V83.8h1.312v3.04c0,.64.224.992.9.992.64,0,.9-.32.9-.992V83.8h1.312v2.976Z" transform="translate(-24.752 -56.984)" fill="#717375"/>
      </g>
      <g id="Group_5" data-name="Group 5" clip-path="url(#clip-path)">
        <path id="Path_6" data-name="Path 6" d="M54.2,83.9h2.592c.9,0,1.76.416,1.76,1.408a1.322,1.322,0,0,1-.8,1.28h0c.544.128.7.736.736,1.216a2.4,2.4,0,0,0,.224,1.152H57.4c-.128-.16-.128-.672-.16-.8-.032-.512-.128-1.024-.736-1.024h-.992v1.856H54.2Zm1.312,2.176h1.12a.556.556,0,0,0,.608-.608c0-.384-.288-.544-.672-.544H55.512v1.152Z" transform="translate(-36.856 -57.052)" fill="#717375"/>
      </g>
      <g id="Group_6" data-name="Group 6" clip-path="url(#clip-path)">
        <path id="Path_7" data-name="Path 7" d="M75.664,88.82H74.8l-.064-.544a1.75,1.75,0,0,1-1.408.672,2.626,2.626,0,0,1,0-5.248,2.118,2.118,0,0,1,2.3,1.824H74.32a.91.91,0,0,0-.992-.7c-.832,0-1.184.768-1.184,1.5s.32,1.5,1.184,1.5c.64,0,1.088-.288,1.152-.768h-.928V86.036h2.112Z" transform="translate(-48.144 -56.916)" fill="#717375"/>
      </g>
    </g>
    <rect id="Rectangle_54" data-name="Rectangle 54" width="1.277" height="4.922" transform="translate(28.908 26.984)" fill="#717375"/>
    <g id="Group_9" data-name="Group 9">
      <g id="Group_8" data-name="Group 8" clip-path="url(#clip-path)">
        <path id="Path_8" data-name="Path 8" d="M101.62,85.556a.913.913,0,0,0-1.024-.768c-.864,0-1.184.768-1.184,1.5s.32,1.5,1.184,1.5a.952.952,0,0,0,1.024-.928h1.312a2.131,2.131,0,0,1-2.3,2.08,2.626,2.626,0,0,1,0-5.248,2.164,2.164,0,0,1,2.3,1.92H101.62Z" transform="translate(-66.708 -56.916)" fill="#717375"/>
      </g>
    </g>
    <path id="Path_9" data-name="Path 9" d="M117.161,85.24h0l.561,1.713H116.6Zm-.623-1.34L114.7,88.822h1.308l.312-.872h1.713l.312.872h1.34L117.846,83.9Z" transform="translate(-77.931 -56.916)" fill="#717375"/>
    <path id="Path_10" data-name="Path 10" d="M133.5,83.9v4.922h3.583V87.7h-2.305V83.9Z" transform="translate(-90.727 -56.916)" fill="#717375"/>
    <g id="Group_12" data-name="Group 12">
      <g id="Group_10" data-name="Group 10" clip-path="url(#clip-path)">
        <path id="Path_11" data-name="Path 11" d="M157.6,83.5a2.627,2.627,0,1,1-2.5,2.624,2.419,2.419,0,0,1,2.5-2.624m0,4.16c.864,0,1.184-.736,1.184-1.5,0-.736-.32-1.5-1.184-1.5s-1.184.768-1.184,1.5.32,1.5,1.184,1.5" transform="translate(-105.468 -56.78)" fill="#717375"/>
      </g>
      <g id="Group_11" data-name="Group 11" clip-path="url(#clip-path)">
        <path id="Path_12" data-name="Path 12" d="M174,83.9h2.4a1.611,1.611,0,0,1,1.824,1.632c0,1.248-.7,1.728-1.824,1.728h-1.088v1.7H174Zm1.312,2.336h.9c.416,0,.7-.16.7-.64a.63.63,0,0,0-.7-.672h-.9Z" transform="translate(-118.32 -57.052)" fill="#717375"/>
      </g>
    </g>
    <path id="Path_13" data-name="Path 13" d="M189.5,83.9v1.09H191v3.832h1.277V84.99h1.464V83.9Z" transform="translate(-128.77 -56.916)" fill="#717375"/>
    <rect id="Rectangle_58" data-name="Rectangle 58" width="1.277" height="4.922" transform="translate(66.475 26.984)" fill="#717375"/>
    <g id="Group_16" data-name="Group 16">
      <g id="Group_13" data-name="Group 13" clip-path="url(#clip-path)">
        <path id="Path_14" data-name="Path 14" d="M217.12,85.556a.913.913,0,0,0-1.024-.768c-.864,0-1.184.768-1.184,1.5s.32,1.5,1.184,1.5a.952.952,0,0,0,1.024-.928h1.312a2.131,2.131,0,0,1-2.3,2.08,2.626,2.626,0,0,1,0-5.248,2.164,2.164,0,0,1,2.3,1.92H217.12Z" transform="translate(-145.248 -56.916)" fill="#717375"/>
      </g>
      <g id="Group_14" data-name="Group 14" clip-path="url(#clip-path)">
        <path id="Path_15" data-name="Path 15" d="M232.644,86.988c.032.576.384.768.96.768.416,0,.8-.128.8-.512,0-.448-.736-.544-1.44-.736-.736-.224-1.472-.544-1.472-1.472,0-1.12,1.12-1.536,2.048-1.536,1.024,0,2.016.48,2.016,1.632h-1.312c.032-.448-.416-.608-.832-.608-.288,0-.64.1-.64.448,0,.384.736.448,1.472.672.736.192,1.472.544,1.472,1.472,0,1.28-1.088,1.7-2.208,1.7-1.152,0-2.176-.512-2.208-1.792h1.344Z" transform="translate(-157.284 -56.78)" fill="#717375"/>
      </g>
      <g id="Group_15" data-name="Group 15" clip-path="url(#clip-path)">
        <path id="Path_16" data-name="Path 16" d="M82.144,64.4a385.573,385.573,0,0,0-41.088-2.3A385.335,385.335,0,0,0,0,64.4Z" transform="translate(0 -42.228)" fill="#0057b8"/>
      </g>
    </g>
  </g>
</svg>
